<svg xmlns="http://www.w3.org/2000/svg" viewBox="0 0 251 301">
  <defs>
    <style>
      .a {
        isolation: isolate;
      }

      .b, .e {
        fill: #fffef8;
      }

      .b, .c {
        stroke: #4d4d4d;
        stroke-linecap: round;
        stroke-miterlimit: 10;
      }

      .b {
        stroke-width: 2px;
      }

      .c {
        fill: #efefef;
        stroke-width: 4px;
      }

      .d {
        fill: none;
      }

      .f {
        fill: #dba945;
      }

      .g {
        opacity: 0.26;
        mix-blend-mode: darken;
      }

      .h {
        fill: #aa7b29;
      }

      .i {
        font-size: 42.01px;
        font-family: Montserrat-Bold, Montserrat;
        font-weight: 700;
        letter-spacing: 0.02em;
      }

      .i, .j {
        fill: #4d4d4d;
      }

      .j {
        font-size: 17.16px;
        font-family: Chonburi-Regular, Chonburi;
        letter-spacing: 0.19em;
      }

      .k {
        letter-spacing: 0.19em;
      }

      .l {
        letter-spacing: 0.2em;
      }

      .m {
        letter-spacing: 0.2em;
      }

      .n {
        letter-spacing: 0.23em;
      }

      .o {
        letter-spacing: 0.19em;
      }

      .p {
        letter-spacing: 0.2em;
      }
    </style>
  </defs>
  <g class="a">
    <g>
      <g>
        <path class="b" d="M87.9,56.6,60.7,51.4a13.4,13.4,0,0,1-.1-2A19.8,19.8,0,0,1,80.4,29.6a19.6,19.6,0,0,1,14.1,6Z"/>
        <path class="b" d="M82.4,51.2A44.1,44.1,0,0,1,94.5,35.6a43.4,43.4,0,0,1,70.9,33.6,41.1,41.1,0,0,1-.7,7.8H40.3A31.9,31.9,0,0,1,60.7,51.4a32,32,0,0,1,21.7-.2"/>
        <path class="c" d="M176.9,85.2V242.7a34.3,34.3,0,0,1-34.2,34.2H64.3A34.3,34.3,0,0,1,30,242.7V85.2c0-4.5,1.6-8.2,8.2-8.2H168.7A8.2,8.2,0,0,1,176.9,85.2Z"/>
        <path class="d" d="M166.4,95.4V221.6c0,20.7-15.7,37.7-34.9,37.7H75.2c-19.2,0-34.9-17-34.9-37.7V95.4c0-5,3.8-9,8.4-9H158.1C162.7,86.4,166.4,90.4,166.4,95.4Z"/>
        <path class="e" d="M165.4,96v16.6H41.5V96a8.3,8.3,0,0,1,8.2-8.3H157.2A8.3,8.3,0,0,1,165.4,96Z"/>
        <path class="f" d="M165.4,112.6V221.4a43.8,43.8,0,0,1-.8,8.2,39.2,39.2,0,0,1-10.5,19.9,32.2,32.2,0,0,1-11.9,7.7,30.7,30.7,0,0,1-10.5,2.1H75.2a30.7,30.7,0,0,1-10.5-2.1,33,33,0,0,1-11.9-7.7,40,40,0,0,1-10.5-19.9,43.8,43.8,0,0,1-.8-8.2V112.6"/>
        <path class="c" d="M221,128.2v93.5a8.2,8.2,0,0,1-8.2,8.2H176.9V216.7h22.2a8.3,8.3,0,0,0,8.2-8.3v-67a8.2,8.2,0,0,0-8.2-8.2H176.9V119.9h35.9A8.3,8.3,0,0,1,221,128.2Z"/>
        <g class="g">
          <path class="h" d="M164.6,107.3V229.9a39,39,0,0,1-10.5,19.7V107.3a5.6,5.6,0,0,1,5.3-5.7,5,5,0,0,1,3.7,1.7A6,6,0,0,1,164.6,107.3Z"/>
          <path class="h" d="M142.3,107.3v150a33.7,33.7,0,0,1-10.5,2v-152a5.5,5.5,0,0,1,5.2-5.7,4.7,4.7,0,0,1,3.7,1.7A5.6,5.6,0,0,1,142.3,107.3Z"/>
          <path class="h" d="M119.9,107.3v152H109.4v-152a5.6,5.6,0,0,1,5.3-5.7,5,5,0,0,1,3.7,1.7A6,6,0,0,1,119.9,107.3Z"/>
          <path class="h" d="M97.5,107.3v152H87v-152a5.6,5.6,0,0,1,5.3-5.7,5,5,0,0,1,3.7,1.7A5.5,5.5,0,0,1,97.5,107.3Z"/>
          <path class="h" d="M75.2,107.3v152a33.2,33.2,0,0,1-10.5-2v-150a5.5,5.5,0,0,1,5.2-5.7,4.7,4.7,0,0,1,3.7,1.7A5.6,5.6,0,0,1,75.2,107.3Z"/>
          <path class="h" d="M52.8,107.3V249.6a39.7,39.7,0,0,1-10.5-19.7V107.3a5.6,5.6,0,0,1,5.3-5.7,5,5,0,0,1,3.7,1.7A6,6,0,0,1,52.8,107.3Z"/>
        </g>
      </g>
      <g>
        <text class="i" transform="translate(41.5 182.4)">BEER</text>
        <text class="j" transform="translate(52.6 199.2) scale(0.9 1)">c<tspan class="k" x="14.1" y="0">o</tspan><tspan class="l" x="29.9" y="0">m</tspan><tspan class="m" x="52.3" y="0">p</tspan><tspan class="n" x="68.5" y="0">a</tspan><tspan class="o" x="83.4" y="0">n</tspan><tspan class="p" x="99.5" y="0">y</tspan></text>
      </g>
    </g>
  </g>
</svg>
