<svg xmlns="http://www.w3.org/2000/svg" viewBox="0 0 500 500">
  <defs>
    <style>
      .a {
        isolation: isolate;
      }

      .b, .e {
        fill: #fffef8;
      }

      .b, .c {
        stroke: #8c6239;
        stroke-linecap: round;
        stroke-miterlimit: 10;
      }

      .b {
        stroke-width: 2px;
      }

      .c {
        fill: #efefef;
        stroke-width: 4px;
      }

      .d {
        fill: none;
      }

      .f {
        fill: #dba945;
      }

      .g {
        opacity: 0.26;
        mix-blend-mode: darken;
      }

      .h {
        fill: #aa7b29;
      }

      .i {
        font-size: 145.86px;
        fill: #8c6239;
        font-family: Montserrat-Bold, Montserrat;
        font-weight: 700;
        letter-spacing: 0.03em;
      }

      .j {
        font-size: 59.58px;
        fill: #c69c6d;
        font-family: Chonburi-Regular, Chonburi;
        letter-spacing: 0.17em;
      }

      .k {
        letter-spacing: 0.18em;
      }

      .l {
        letter-spacing: 0.18em;
      }

      .m {
        letter-spacing: 0.19em;
      }

      .n {
        letter-spacing: 0.22em;
      }

      .o {
        letter-spacing: 0.18em;
      }

      .p {
        letter-spacing: 0.2em;
      }
    </style>
  </defs>
  <g class="a">
    <g>
      <g>
        <path class="b" d="M232.5,61.8l-22.8-4.4a9.1,9.1,0,0,1-.1-1.7,16.6,16.6,0,0,1,28.5-11.6Z"/>
        <path class="b" d="M227.9,57.3a37.6,37.6,0,0,1,10.2-13.2,36.5,36.5,0,0,1,59.5,28.2,35.2,35.2,0,0,1-.6,6.6H192.6a26.7,26.7,0,0,1,17.1-21.5,26,26,0,0,1,9.3-1.7,26.5,26.5,0,0,1,8.9,1.6"/>
        <path class="c" d="M307.2,85.8V218a28.9,28.9,0,0,1-28.7,28.8H212.7A28.9,28.9,0,0,1,183.9,218V85.8c0-3.8,1.3-6.9,6.9-6.9H300.3A6.9,6.9,0,0,1,307.2,85.8Z"/>
        <path class="d" d="M298.4,94.4V200.3c0,17.4-13.2,31.6-29.3,31.6H221.9c-16.1,0-29.3-14.2-29.3-31.6V94.4c0-4.2,3.1-7.6,7-7.6h91.8C295.3,86.8,298.4,90.2,298.4,94.4Z"/>
        <path class="e" d="M297.6,94.8v14h-104v-14a6.9,6.9,0,0,1,6.9-6.9h90.2A6.9,6.9,0,0,1,297.6,94.8Z"/>
        <path class="f" d="M297.6,108.8v91.3a38.4,38.4,0,0,1-.7,6.9,32.6,32.6,0,0,1-8.8,16.7,28.3,28.3,0,0,1-10,6.5,23.8,23.8,0,0,1-8.8,1.7H221.8a24.2,24.2,0,0,1-8.8-1.7,27.1,27.1,0,0,1-9.9-6.5,31.8,31.8,0,0,1-8.8-16.7,31.1,31.1,0,0,1-.7-6.9V108.8"/>
        <path class="c" d="M344.2,121.9v78.4a7,7,0,0,1-6.9,7H307.2V196.2h18.7a7,7,0,0,0,6.9-7V133a6.9,6.9,0,0,0-6.9-6.9H307.2V115h30.1A6.9,6.9,0,0,1,344.2,121.9Z"/>
        <g class="g">
          <path class="h" d="M296.9,104.4V207.2a33,33,0,0,1-8.8,16.6V104.4a4.7,4.7,0,0,1,4.4-4.9,4.2,4.2,0,0,1,3.1,1.5A4.8,4.8,0,0,1,296.9,104.4Z"/>
          <path class="h" d="M278.1,104.4V230.2a23.4,23.4,0,0,1-8.8,1.7V104.4a4.7,4.7,0,0,1,4.4-4.9,4.2,4.2,0,0,1,3.1,1.5A4.8,4.8,0,0,1,278.1,104.4Z"/>
          <path class="h" d="M259.4,104.4V231.9h-8.8V104.4a4.6,4.6,0,0,1,4.4-4.9,4.2,4.2,0,0,1,3.1,1.5A4.8,4.8,0,0,1,259.4,104.4Z"/>
          <path class="h" d="M240.6,104.4V231.9h-8.8V104.4a4.7,4.7,0,0,1,4.4-4.9,4.2,4.2,0,0,1,3.1,1.5A4.8,4.8,0,0,1,240.6,104.4Z"/>
          <path class="h" d="M221.8,104.4V231.9a24.2,24.2,0,0,1-8.8-1.7V104.4a4.7,4.7,0,0,1,4.4-4.9,4.2,4.2,0,0,1,3.1,1.5A4.8,4.8,0,0,1,221.8,104.4Z"/>
          <path class="h" d="M203.1,104.4V223.8a32.3,32.3,0,0,1-8.8-16.6V104.4a4.6,4.6,0,0,1,4.4-4.9,4.2,4.2,0,0,1,3.1,1.5A4.8,4.8,0,0,1,203.1,104.4Z"/>
        </g>
      </g>
      <g>
        <text class="i" transform="translate(35.4 382)">BEER</text>
        <text class="j" transform="translate(73.9 440.2) scale(0.9 1)">c<tspan class="k" x="48.2" y="0">o</tspan><tspan class="l" x="102.1" y="0">m</tspan><tspan class="m" x="179.1" y="0">p</tspan><tspan class="n" x="234.6" y="0">a</tspan><tspan class="o" x="285.9" y="0">n</tspan><tspan class="p" x="341" y="0">y</tspan></text>
      </g>
    </g>
  </g>
</svg>
