<svg xmlns="http://www.w3.org/2000/svg" viewBox="0 0 500 200">
  <defs>
    <style>
      .a {
        isolation: isolate;
      }

      .b, .e {
        fill: #fffef8;
      }

      .b, .c {
        stroke: #8c6239;
        stroke-linecap: round;
        stroke-miterlimit: 10;
      }

      .c {
        fill: #efefef;
        stroke-width: 2px;
      }

      .d {
        fill: none;
      }

      .f {
        fill: #dba945;
      }

      .g {
        opacity: 0.26;
        mix-blend-mode: darken;
      }

      .h {
        fill: #aa7b29;
      }

      .i {
        font-size: 104.29px;
        fill: #c69c6d;
        font-family: Montserrat-Bold, Montserrat;
        font-weight: 700;
        letter-spacing: 0.03em;
      }

      .j {
        font-size: 42.6px;
        fill: #f2f2f2;
        font-family: Chonburi-Regular, Chonburi;
        letter-spacing: 0.18em;
      }

      .k {
        letter-spacing: 0.19em;
      }

      .l {
        letter-spacing: 0.19em;
      }

      .m {
        letter-spacing: 0.19em;
      }

      .n {
        letter-spacing: 0.22em;
      }

      .o {
        letter-spacing: 0.18em;
      }

      .p {
        letter-spacing: 0.2em;
      }
    </style>
  </defs>
  <g class="a">
    <g>
      <g>
        <path class="b" d="M70.8,41.1,53.6,37.8a4.9,4.9,0,0,1-.1-1.2A12.5,12.5,0,0,1,66,24.1a12.3,12.3,0,0,1,8.9,3.7Z"/>
        <path class="b" d="M67.3,37.7a29.5,29.5,0,0,1,7.6-9.9,28,28,0,0,1,17.4-6.2,27.5,27.5,0,0,1,27.4,27.5,40.5,40.5,0,0,1-.4,4.9H40.7A20.1,20.1,0,0,1,53.6,37.8a19.6,19.6,0,0,1,6.9-1.2,21.5,21.5,0,0,1,6.8,1.1"/>
        <path class="c" d="M127,59.2v99.4a21.8,21.8,0,0,1-21.7,21.7H55.8a21.7,21.7,0,0,1-21.6-21.7V59.2c0-2.9,1-5.2,5.2-5.2h82.4A5.2,5.2,0,0,1,127,59.2Z"/>
        <path class="d" d="M120.3,65.6v79.7c0,13.1-9.9,23.8-22,23.8H62.7c-12.1,0-22-10.7-22-23.8V65.6A5.6,5.6,0,0,1,46,59.9h69A5.6,5.6,0,0,1,120.3,65.6Z"/>
        <path class="e" d="M119.7,66V76.5H41.4V66a5.2,5.2,0,0,1,5.2-5.2h67.9A5.2,5.2,0,0,1,119.7,66Z"/>
        <path class="f" d="M119.7,76.5v68.7a29.6,29.6,0,0,1-.5,5.2,24.6,24.6,0,0,1-6.7,12.5,20,20,0,0,1-7.4,4.9,19,19,0,0,1-6.7,1.3H62.7a18.5,18.5,0,0,1-6.6-1.3,19.5,19.5,0,0,1-7.5-4.9A24.5,24.5,0,0,1,42,150.4a22.4,22.4,0,0,1-.6-5.2V76.5"/>
        <path class="c" d="M154.8,86.3v59a5.2,5.2,0,0,1-5.2,5.2H127v-8.3h14a5.2,5.2,0,0,0,5.2-5.2V94.7a5.2,5.2,0,0,0-5.2-5.2H127V81.1h22.6A5.3,5.3,0,0,1,154.8,86.3Z"/>
        <g class="g">
          <path class="h" d="M119.2,73.2v77.3a25.2,25.2,0,0,1-6.6,12.5V73.2a3.5,3.5,0,0,1,3.3-3.7,3,3,0,0,1,2.3,1.1A3.6,3.6,0,0,1,119.2,73.2Z"/>
          <path class="h" d="M105.1,73.2v94.6a18.6,18.6,0,0,1-6.7,1.3V73.2a3.6,3.6,0,0,1,3.4-3.7,3,3,0,0,1,2.3,1.1A3.6,3.6,0,0,1,105.1,73.2Z"/>
          <path class="h" d="M91,73.2v95.9H84.3V73.2a3.6,3.6,0,0,1,3.3-3.7A3.2,3.2,0,0,1,90,70.6,3.6,3.6,0,0,1,91,73.2Z"/>
          <path class="h" d="M76.8,73.2v95.9H70.2V73.2a3.6,3.6,0,0,1,3.3-3.7,3.2,3.2,0,0,1,2.4,1.1A3.6,3.6,0,0,1,76.8,73.2Z"/>
          <path class="h" d="M62.7,73.2v95.9a18.5,18.5,0,0,1-6.6-1.3V73.2a3.6,3.6,0,0,1,3.3-3.7,3,3,0,0,1,2.3,1.1A3.6,3.6,0,0,1,62.7,73.2Z"/>
          <path class="h" d="M48.6,73.2V163A24.5,24.5,0,0,1,42,150.5V73.2a3.6,3.6,0,0,1,3.3-3.7,3,3,0,0,1,2.3,1.1A3.6,3.6,0,0,1,48.6,73.2Z"/>
        </g>
      </g>
      <g>
        <text class="i" transform="translate(166.4 125.6)">BEER</text>
        <text class="j" transform="translate(193.9 167.2) scale(0.9 1)">c<tspan class="k" x="34.7" y="0">o</tspan><tspan class="l" x="73.5" y="0">m</tspan><tspan class="m" x="128.7" y="0">p</tspan><tspan class="n" x="168.7" y="0">a</tspan><tspan class="o" x="205.5" y="0">n</tspan><tspan class="p" x="245.1" y="0">y</tspan></text>
      </g>
    </g>
  </g>
</svg>
